<svg width="20" height="18" viewBox="0 0 20 18" fill="none" xmlns="http://www.w3.org/2000/svg">
<path d="M19.82 4.76868C19.527 3.68609 18.9584 2.6979 18.1698 1.90048C17.3811 1.10306 16.3993 0.523625 15.32 0.21868C14.41 -0.0307477 13.454 -0.0620367 12.5296 0.127354C11.6052 0.316745 10.7386 0.721476 9.99999 1.30868C9.2614 0.721476 8.39473 0.316745 7.47036 0.127354C6.54599 -0.0620367 5.58999 -0.0307477 4.67999 0.21868C3.6007 0.523625 2.61885 1.10306 1.83019 1.90048C1.04154 2.6979 0.472987 3.68609 0.179986 4.76868C-0.0716443 5.80344 -0.0350499 6.88735 0.285798 7.90278C0.606645 8.91821 1.19949 9.82637 1.99999 10.5287L9.32999 17.7087C9.51691 17.8919 9.76823 17.9945 10.03 17.9945C10.2917 17.9945 10.5431 17.8919 10.73 17.7087L18 10.5287C18.8005 9.82637 19.3933 8.91821 19.7142 7.90278C20.035 6.88735 20.0716 5.80344 19.82 4.76868ZM16.63 9.09868L9.99999 15.5987L3.36999 9.09868C2.82274 8.64005 2.41539 8.03686 2.19438 7.35791C1.97337 6.67896 1.94759 5.95157 2.11999 5.25868C2.32892 4.51912 2.72338 3.84521 3.26592 3.30092C3.80847 2.75662 4.4811 2.36 5.21999 2.14868C5.54517 2.05447 5.88147 2.00403 6.21999 1.99868C7.3594 2.03324 8.43846 2.51882 9.21999 3.34868C9.40691 3.53191 9.65823 3.63454 9.91999 3.63454C10.1817 3.63454 10.4331 3.53191 10.62 3.34868C11.126 2.79561 11.7736 2.39145 12.4927 2.17994C13.2119 1.96843 13.9751 1.95762 14.7 2.14868C15.4389 2.36 16.1115 2.75662 16.654 3.30092C17.1966 3.84521 17.591 4.51912 17.8 5.25868C17.9817 5.94421 17.9684 6.66685 17.7617 7.34527C17.555 8.02368 17.1631 8.63093 16.63 9.09868Z" fill="#231F20"/>
</svg>
