<svg width="21" height="21" viewBox="0 0 21 21" fill="none" xmlns="http://www.w3.org/2000/svg">
<path d="M16 14.9987V17.9987C16 18.7944 15.6839 19.5574 15.1213 20.12C14.5587 20.6826 13.7956 20.9987 13 20.9987H3C2.20435 20.9987 1.44129 20.6826 0.87868 20.12C0.316071 19.5574 0 18.7944 0 17.9987V3.99872C0 3.20307 0.316071 2.44001 0.87868 1.8774C1.44129 1.31479 2.20435 0.998718 3 0.998718H13C13.7956 0.998718 14.5587 1.31479 15.1213 1.8774C15.6839 2.44001 16 3.20307 16 3.99872V6.99872C16 7.26393 15.8946 7.51829 15.7071 7.70582C15.5196 7.89336 15.2652 7.99872 15 7.99872C14.7348 7.99872 14.4804 7.89336 14.2929 7.70582C14.1054 7.51829 14 7.26393 14 6.99872V3.99872C14 3.7335 13.8946 3.47915 13.7071 3.29161C13.5196 3.10408 13.2652 2.99872 13 2.99872H3C2.73478 2.99872 2.48043 3.10408 2.29289 3.29161C2.10536 3.47915 2 3.7335 2 3.99872V17.9987C2 18.2639 2.10536 18.5183 2.29289 18.7058C2.48043 18.8934 2.73478 18.9987 3 18.9987H13C13.2652 18.9987 13.5196 18.8934 13.7071 18.7058C13.8946 18.5183 14 18.2639 14 17.9987V14.9987C14 14.7335 14.1054 14.4791 14.2929 14.2916C14.4804 14.1041 14.7348 13.9987 15 13.9987C15.2652 13.9987 15.5196 14.1041 15.7071 14.2916C15.8946 14.4791 16 14.7335 16 14.9987ZM19.71 10.2887L17.71 8.28872C17.5217 8.10041 17.2663 7.99463 17 7.99463C16.7337 7.99463 16.4783 8.10041 16.29 8.28872C16.1017 8.47702 15.9959 8.73242 15.9959 8.99872C15.9959 9.26502 16.1017 9.52041 16.29 9.70872L16.59 9.99872H10C9.73478 9.99872 9.48043 10.1041 9.29289 10.2916C9.10536 10.4791 9 10.7335 9 10.9987C9 11.2639 9.10536 11.5183 9.29289 11.7058C9.48043 11.8934 9.73478 11.9987 10 11.9987H16.59L16.29 12.2887C16.1963 12.3817 16.1219 12.4923 16.0711 12.6141C16.0203 12.736 15.9942 12.8667 15.9942 12.9987C15.9942 13.1307 16.0203 13.2614 16.0711 13.3833C16.1219 13.5052 16.1963 13.6158 16.29 13.7087C16.383 13.8024 16.4936 13.8768 16.6154 13.9276C16.7373 13.9784 16.868 14.0045 17 14.0045C17.132 14.0045 17.2627 13.9784 17.3846 13.9276C17.5064 13.8768 17.617 13.8024 17.71 13.7087L19.71 11.7087C19.8037 11.6158 19.8781 11.5052 19.9289 11.3833C19.9797 11.2614 20.0058 11.1307 20.0058 10.9987C20.0058 10.8667 19.9797 10.736 19.9289 10.6141C19.8781 10.4923 19.8037 10.3817 19.71 10.2887Z" fill="#231F20"/>
</svg>
